{"title":"Riley Reid - TeensLoveHugeCocks - Riding Riley","uid":9695010,"size":360642479,"categoryP":"porn","categoryS":"movie_clips","magnet":"?xt=urn:btih:5befc0b4d6e3f0c3b16883e23481e70e0ede0217&amp;dn=Riley+Reid+-+TeensLoveHugeCocks+-+Riding+Riley&amp;tr=udp%3A%2F%2Ftracker.openbittorrent.com%3A80&amp;tr=udp%3A%2F%2Fopen.demonii.com%3A1337&amp;tr=udp%3A%2F%2Ftracker.coppersurfer.tk%3A6969&amp;tr=udp%3A%2F%2Fexodus.desync.com%3A6969","seeders":0,"leechers":6,"uploader":"athklym","files":-1,"time":1393922425,"description":" &lt;a href=&quot;http://bayimg.com/eaknjAafl&quot; rel=&quot;nofollow&quot; target=&quot;_NEW&quot;&gt;http://bayimg.com/eaknjAafl&lt;/a&gt;\nRiley was bringing her Miami charm to TL this week. Pretty and sexy, she knew exactly what to say and what she wanted. As she stripped down, we saw her two recent endeavors, a bigger ass and a hairy bush. Both were forming beautifully. Riley told us how she's always had big cocks since high school, and how she needed one now. As she masturbated, her dreams were answered by Shane. He came packing plenty for Riley to play with, and that's exactly what she did. Everything from fondling his cock with her feet to sucking and riding it was her intention, and she took it as far as she could. Soon after Riley came herself, Shane gave her a creamy dessert to drink down. Seemingly satisfied, but this girl still looked hungry...\n\nRiley_Reid_TeensLoveHugeCocks_Riding_Riley.mp4\nFormat : MPEG-4\nFormat profile : Base Media / Version 2\nCodec ID : mp42\nFile size : 344 MiB\nDuration : 31mn 14s\nOverall bit rate mode : Variable\nOverall bit rate : 1 539 Kbps\nEncoded date : UTC 2013-10-29 20:52:49\nTagged date : UTC 2013-10-29 20:52:49\nWriting library : Apple QuickTime\n\nVideo\nID : 1\nFormat : AVC\nFormat/Info : Advanced Video Codec\nFormat profile : &lt;a class=&quot;__cf_email__&quot; href=&quot;/cdn-cgi/l/email-protection&quot; data-cfemail=&quot;95d8f4fcfbd5d9a6bba5&quot;&gt;[email&amp;#160;protected]&lt;/a&gt;&lt;script cf-hash='f9e31' type=&quot;text/javascript&quot;&gt;\n/* &lt;![CDATA[ */!function(){try{var t=&quot;currentScript&quot;in document?document.currentScript:function(){for(var t=document.getElementsByTagName(&quot;script&quot;),e=t.length;e--;)if(t[e].getAttribute(&quot;cf-hash&quot;))return t[e]}();if(t&amp;&amp;t.previousSibling){var e,r,n,i,c=t.previousSibling,a=c.getAttribute(&quot;data-cfemail&quot;);if(a){for(e=&quot;&quot;,r=parseInt(a.substr(0,2),16),n=2;a.length-n;n+=2)i=parseInt(a.substr(n,2),16)^r,e+=String.fromCharCode(i);e=document.createTextNode(e),c.parentNode.replaceChild(e,c)}}}catch(u){}}();/* ]]&gt; */&lt;/script&gt;\nFormat settings, CABAC : No\nFormat settings, ReFrames : 6 frames\nCodec ID : avc1\nCodec ID/Info : Advanced Video Coding\nDuration : 31mn 14s\nSource duration : 31mn 14s\nBit rate mode : Variable\nBit rate : 1 437 Kbps\nMaximum bit rate : 1 500 Kbps\nWidth : 768 pixels\nHeight : 432 pixels\nDisplay aspect ratio : 16:9\nFrame rate mode : Constant\nFrame rate : 29.970 fps\nStandard : Component\nColor space : YUV\nChroma subsampling : 4:2:0\nBit depth : 8 bits\nScan type : Progressive\nBits/(Pixel*Frame) : 0.145\nStream size : 321 MiB (93%)\nSource stream size : 336 MiB (98%)\nEncoded date : UTC 2013-10-29 20:52:49\nTagged date : UTC 2013-10-29 19:20:55\n\nAudio\nID : 2\nFormat : AAC\nFormat/Info : Advanced Audio Codec\nFormat profile : LC\nCodec ID : 40\nDuration : 31mn 14s\nBit rate mode : Variable\nBit rate : 32.0 Kbps\nMaximum bit rate : 34.7 Kbps\nChannel count : 1 channel\nChannel positions : Front: C\nSampling rate : 32.0 KHz\nCompression mode : Lossy\nStream size : 7.15 MiB (2%)\nEncoded date : UTC 2013-10-29 20:52:49\nTagged date : UTC 2013-10-29 19:20:55 ","torrent":{"xt":"urn:btih:5befc0b4d6e3f0c3b16883e23481e70e0ede0217","amp;dn":"Riley+Reid+-+TeensLoveHugeCocks+-+Riding+Riley","amp;tr":["udp%3A%2F%2Ftracker.openbittorrent.com%3A80","udp%3A%2F%2Fopen.demonii.com%3A1337","udp%3A%2F%2Ftracker.coppersurfer.tk%3A6969","udp%3A%2F%2Fexodus.desync.com%3A6969"],"infoHash":"5befc0b4d6e3f0c3b16883e23481e70e0ede0217","infoHashBuffer":{"type":"Buffer","data":[91,239,192,180,214,227,240,195,177,104,131,226,52,129,231,14,14,222,2,23]},"announce":[],"urlList":[]}}